<svg width="453" height="110" viewBox="0 0 453 110" fill="none" xmlns="http://www.w3.org/2000/svg">
<path d="M203.342 39.8015H192.902V37.4472C192.902 35.0587 192.322 33.0115 191.161 31.3055C190.07 29.5312 188.193 28.6441 185.532 28.6441C184.098 28.6441 182.938 28.9171 182.051 29.463C181.164 30.0089 180.448 30.6913 179.902 31.5102C179.356 32.3973 178.98 33.421 178.776 34.5811C178.571 35.6729 178.469 36.833 178.469 38.0613C178.469 39.4944 178.503 40.6886 178.571 41.644C178.707 42.5994 178.98 43.4524 179.39 44.203C179.799 44.9537 180.379 45.602 181.13 46.1479C181.949 46.6938 183.041 47.2397 184.406 47.7857L192.39 50.9589C194.71 51.846 196.587 52.9037 198.02 54.1321C199.453 55.2922 200.579 56.657 201.398 58.2265C202.148 59.8643 202.66 61.7409 202.933 63.8564C203.206 65.9036 203.342 68.2579 203.342 70.9193C203.342 73.9902 203.035 76.8563 202.421 79.5177C201.807 82.1108 200.818 84.3286 199.453 86.1712C198.02 88.0819 196.143 89.5832 193.823 90.675C191.503 91.7669 188.671 92.3128 185.327 92.3128C182.802 92.3128 180.448 91.8693 178.264 90.9821C176.08 90.095 174.204 88.8667 172.634 87.2971C171.064 85.7276 169.802 83.9192 168.847 81.872C167.96 79.7565 167.516 77.4704 167.516 75.0138V71.124H177.957V74.3996C177.957 76.3103 178.503 78.0505 179.595 79.62C180.755 81.1213 182.665 81.872 185.327 81.872C187.101 81.872 188.466 81.6331 189.421 81.1554C190.445 80.6095 191.23 79.8589 191.776 78.9035C192.322 77.9481 192.629 76.8222 192.697 75.5256C192.833 74.1608 192.902 72.6595 192.902 71.0217C192.902 69.1109 192.833 67.5414 192.697 66.3131C192.56 65.0847 192.287 64.0952 191.878 63.3446C191.4 62.5939 190.752 61.9798 189.933 61.5021C189.182 61.0244 188.159 60.5126 186.862 59.9667L179.39 56.8958C174.886 55.0533 171.849 52.6308 170.28 49.6282C168.778 46.5573 168.028 42.7358 168.028 38.1637C168.028 35.4341 168.403 32.8409 169.154 30.3842C169.904 27.9276 171.03 25.8121 172.532 24.0378C173.965 22.2636 175.773 20.8646 177.957 19.841C180.209 18.7492 182.87 18.2032 185.941 18.2032C188.534 18.2032 190.888 18.6809 193.004 19.6363C195.188 20.5917 197.064 21.8541 198.634 23.4237C201.773 26.6992 203.342 30.4525 203.342 34.6834V39.8015Z" fill="#334155"/>
<path d="M223.431 91.6987V60.8879L209.1 18.8174H220.155L228.549 47.7857H228.754L237.147 18.8174H248.202L233.872 60.8879V91.6987H223.431Z" fill="#334155"/>
<path d="M266.391 28.6441V51.3683H272.328C274.171 51.3683 275.638 51.1295 276.73 50.6518C277.822 50.1059 278.675 49.3552 279.289 48.3998C279.835 47.4445 280.21 46.2844 280.415 44.9195C280.62 43.4865 280.722 41.8487 280.722 40.0062C280.722 38.1637 280.62 36.56 280.415 35.1952C280.21 33.7622 279.801 32.5338 279.187 31.5102C277.89 29.5995 275.433 28.6441 271.817 28.6441H266.391ZM255.951 91.6987V18.8174H272.738C285.021 18.8174 291.163 25.9486 291.163 40.2109C291.163 44.5101 290.48 48.161 289.116 51.1636C287.819 54.1662 285.499 56.5887 282.155 58.4312L293.415 91.6987H282.36L272.635 60.5808H266.391V91.6987H255.951Z" fill="#334155"/>
<path d="M301.479 36.0141C301.479 33.0798 301.991 30.4866 303.014 28.2347C304.038 25.9827 305.403 24.1061 307.109 22.6048C308.747 21.1717 310.589 20.0799 312.636 19.3292C314.752 18.5786 316.867 18.2032 318.983 18.2032C321.098 18.2032 323.179 18.5786 325.227 19.3292C327.342 20.0799 329.253 21.1717 330.959 22.6048C332.597 24.1061 333.927 25.9827 334.951 28.2347C335.975 30.4866 336.486 33.0798 336.486 36.0141V74.502C336.486 77.5728 335.975 80.2001 334.951 82.3838C333.927 84.5675 332.597 86.3759 330.959 87.8089C329.253 89.3102 327.342 90.4362 325.227 91.1869C323.179 91.9375 321.098 92.3128 318.983 92.3128C316.867 92.3128 314.752 91.9375 312.636 91.1869C310.589 90.4362 308.747 89.3102 307.109 87.8089C305.403 86.3759 304.038 84.5675 303.014 82.3838C301.991 80.2001 301.479 77.5728 301.479 74.502V36.0141ZM311.92 74.502C311.92 77.0269 312.602 78.9035 313.967 80.1318C315.4 81.2919 317.072 81.872 318.983 81.872C320.893 81.872 322.531 81.2919 323.896 80.1318C325.329 78.9035 326.046 77.0269 326.046 74.502V36.0141C326.046 33.4892 325.329 31.6467 323.896 30.4866C322.531 29.2583 320.893 28.6441 318.983 28.6441C317.072 28.6441 315.4 29.2583 313.967 30.4866C312.602 31.6467 311.92 33.4892 311.92 36.0141V74.502Z" fill="#334155"/>
<path d="M348.236 91.6987V18.8174H363.897C366.763 18.8174 369.288 19.1927 371.472 19.9434C373.655 20.694 375.634 22.0247 377.409 23.9355C379.183 25.8462 380.411 28.0982 381.094 30.6913C381.776 33.2162 382.117 36.6624 382.117 41.0298C382.117 44.3054 381.912 47.0691 381.503 49.3211C381.162 51.573 380.377 53.6885 379.149 55.6675C377.716 58.0559 375.805 59.9325 373.417 61.2974C371.028 62.5939 367.889 63.2422 363.999 63.2422H358.676V91.6987H348.236ZM358.676 28.6441V53.4155H363.692C365.808 53.4155 367.445 53.1084 368.606 52.4943C369.766 51.8801 370.619 51.0271 371.165 49.9352C371.71 48.9116 372.018 47.6492 372.086 46.1479C372.222 44.6466 372.291 42.9747 372.291 41.1322C372.291 39.4262 372.256 37.8225 372.188 36.3212C372.12 34.7517 371.813 33.3868 371.267 32.2267C370.721 31.0667 369.902 30.1795 368.81 29.5654C367.718 28.9512 366.149 28.6441 364.102 28.6441H358.676Z" fill="#334155"/>
<path d="M392.786 91.6987V18.8174H403.227V91.6987H392.786Z" fill="#334155"/>
<path d="M437.016 66.2107L431.898 39.8015H431.694L426.576 66.2107H437.016ZM411.221 91.6987L427.497 18.8174H436.198L452.473 91.6987H442.032L438.961 76.0374H424.733L421.662 91.6987H411.221Z" fill="#334155"/>
<path fill-rule="evenodd" clip-rule="evenodd" d="M57.4291 18.3575L63.0875 7.82415H70.4776L63.1935 21.3903H70.5668L77.8509 7.82415H85.2432L74.1163 28.5394H62.8978L57.4303 18.3575H57.4291ZM87.6144 55.1183C89.2145 55.1183 90.5133 56.4015 90.5133 57.9826C90.5133 59.5648 89.2145 60.8458 87.6144 60.8458C86.0098 60.8458 84.711 59.5648 84.711 57.9826C84.711 56.4004 86.0098 55.1183 87.6144 55.1183ZM58.979 34.9699L40.1975 0H32.8063L44.2937 21.3903H36.9203L25.4341 0H18.0406L29.528 21.3903H22.1558L10.6673 0H3.27717L20.0826 31.2955H12.7092L7.38898 21.3903H0L10.4396 40.8302L30.6014 50.8793H48.353L23.2024 63.4144L70.3794 110L76.2653 100.416H82.9045L91.7998 83.3798H106.403L116.491 89.8014L131.757 80.6271V59.2658L124.589 53.6287H103.615L98.7793 50.0156L109.837 44.5046L120.279 25.0647H112.888L107.566 34.9699H100.193L114.772 7.82526H107.379L88.0562 43.8094H80.6806L90.7487 25.0636H83.3564L78.0384 34.9688H58.979V34.9699Z" fill="#DC393E"/>
</svg>
