<svg viewBox="0 0 409 100" xmlns="http://www.w3.org/2000/svg">
  <g fill="none" fill-rule="evenodd">
    <path d="M51.52 17.26l5.071-9.44h6.623l-6.528 12.158h6.608L69.822 7.82h6.625l-9.972 18.565H56.421l-4.9-9.125zm27.052 32.945c1.434 0 2.598 1.15 2.598 2.567 0 1.418-1.164 2.566-2.598 2.566-1.438 0-2.602-1.148-2.602-2.566s1.164-2.567 2.602-2.567zM52.909 32.148L36.077.808h-6.624l10.295 19.17H33.14L22.846.808H16.22l10.295 19.17h-6.607L9.612.808H2.989L18.05 28.855h-6.608l-4.768-8.877H.052L9.408 37.4l18.069 9.006h15.909L20.846 57.64l42.28 41.75 5.275-8.589h5.95l7.972-15.268H95.41l9.041 5.755 13.682-8.222V53.922l-6.424-5.052H92.912l-4.334-3.238 9.91-4.939 9.358-17.422h-6.624l-4.769 8.877h-6.608l13.066-24.327h-6.626L78.968 40.07h-6.61l9.023-16.8h-6.625l-4.766 8.877H52.909z" fill="#E35252"/>
    <path d="M151.666 56.372c1.19 1.253 2.64 2.272 4.347 3.055 1.708.783 3.58 1.175 5.617 1.175 1.723 0 3.063-.345 4.019-1.034.955-.69 1.433-1.52 1.433-2.491 0-1.065-.517-1.872-1.551-2.42-1.034-.549-2.632-1.074-4.794-1.575-2.444-.564-4.434-1.128-5.969-1.692-1.535-.564-2.875-1.48-4.018-2.75-1.144-1.269-1.716-2.984-1.716-5.146 0-1.755.486-3.353 1.457-4.794.971-1.441 2.358-2.577 4.16-3.408 1.801-.83 3.893-1.245 6.274-1.245 4.982 0 9.055 1.457 12.22 4.371l-3.713 4.888a12.453 12.453 0 0 0-4.206-2.561c-1.583-.58-3.173-.87-4.771-.87-1.473 0-2.608.29-3.407.87-.8.58-1.199 1.355-1.199 2.326 0 .971.486 1.684 1.457 2.139.971.454 2.57.947 4.794 1.48 2.381.533 4.363 1.104 5.946 1.716a10.44 10.44 0 0 1 4.089 2.843c1.143 1.285 1.715 2.992 1.715 5.123 0 3.008-1.073 5.436-3.22 7.285-2.146 1.849-5.256 2.773-9.329 2.773-5.546 0-9.98-1.66-13.301-4.982l3.666-5.076zm45.577-3.337l-12.08-18.518h7.615l7.802 12.596 7.708-12.596h7.614l-11.985 18.518v12.831h-6.674V53.035zm43.602 1.598h-4.888v11.233h-6.674V34.517h14.664c2.131 0 3.995.43 5.593 1.292 1.598.862 2.82 2.06 3.666 3.596.846 1.535 1.27 3.274 1.27 5.217 0 2.57-.667 4.653-1.998 6.251-1.332 1.598-2.953 2.616-4.865 3.055l7.05 11.938h-7.66l-6.158-11.233zm6.815-10.058c0-1.285-.446-2.326-1.34-3.126-.892-.799-2.012-1.198-3.36-1.198h-7.003v8.648h7.003c1.348 0 2.468-.4 3.36-1.199.894-.799 1.34-1.84 1.34-3.125zm20.808 5.64c0-3.102.705-5.883 2.115-8.343 1.41-2.46 3.36-4.386 5.851-5.78 2.491-1.395 5.288-2.092 8.39-2.092 3.133 0 5.945.697 8.436 2.092 2.491 1.394 4.442 3.32 5.852 5.78 1.41 2.46 2.115 5.241 2.115 8.343 0 3.102-.705 5.883-2.115 8.342-1.41 2.46-3.36 4.387-5.852 5.781-2.49 1.395-5.303 2.092-8.436 2.092-3.102 0-5.899-.697-8.39-2.092-2.49-1.394-4.441-3.32-5.851-5.78-1.41-2.46-2.115-5.241-2.115-8.343zm25.897 0c0-1.943-.392-3.697-1.175-5.264-.783-1.567-1.904-2.796-3.36-3.69-1.458-.893-3.126-1.339-5.006-1.339-1.88 0-3.54.446-4.982 1.34-1.441.893-2.554 2.122-3.337 3.689-.783 1.567-1.175 3.321-1.175 5.264s.392 3.697 1.175 5.264c.783 1.567 1.896 2.796 3.337 3.69 1.441.893 3.102 1.339 4.982 1.339 1.88 0 3.548-.446 5.005-1.34 1.457-.893 2.578-2.122 3.36-3.689.784-1.567 1.176-3.321 1.176-5.264zm22.03-15.698h14.664c2.193 0 4.089.454 5.687 1.363 1.598.909 2.804 2.123 3.619 3.642.814 1.52 1.222 3.22 1.222 5.1 0 1.849-.416 3.533-1.246 5.053-.83 1.52-2.037 2.725-3.619 3.619-1.582.893-3.47 1.339-5.663 1.339h-7.99v11.233h-6.674V34.517zm18.377 10.058c0-1.285-.44-2.326-1.316-3.126-.878-.799-1.974-1.198-3.29-1.198h-7.097v8.648h7.097c1.347 0 2.451-.4 3.313-1.199.862-.799 1.293-1.84 1.293-3.125zm21.418-10.058h6.674v31.349h-6.674V34.517zm43.32 25.944h-14.005l-1.974 5.405h-7.332l12.126-31.349h8.366l12.079 31.349h-7.285l-1.974-5.405zm-12.22-5.781h10.388l-5.17-14.382-5.217 14.382z" fill="#4a5568" fill-rule="nonzero"/>
  </g>
</svg>